<svg width="2450" height="690" xmlns="http://www.w3.org/2000/svg" version="1.1" xmlns:xlink="http://www.w3.org/1999/xlink" transform="matrix(1,0,0,-1,0,0)">
  <path d="M254 446l-8 -11l-122 122l8 10c65 77 161 121 262 121c70 0 137 -21 194 -61c72 -49 122 -123 141 -208l4 -17h-176l-4 8c-9 21 -22 40 -38 56c-33 33 -76 51 -122 51s-89 -18 -122 -51c-6 -6 -12 -13 -17 -20zM431 288l307 -2v-285h-170v46c-52 -31 -112 -47 -173 -47
c-92 0 -178 36 -243 101s-101 151 -101 243c0 52 11 102 33 148l8 18l132 -132l-1 -7c-1 -9 -2 -18 -2 -27c0 -46 18 -89 51 -122s76 -51 122 -51c36 0 70 11 99 31z" fill="#483D8B"></path>
  <path d="M838 687h170v-255l-170 170v85zM838 0v524l170 -170v-354h-170z" fill="#5E298B"></path>
  <path d="M1544 258l263 -259h-264l-4 4l-264 263v-1l-170 170v251h459c13 0 26 -1 39 -4c39 -8 74 -27 102 -55c26 -26 44 -59 53 -95c4 -15 6 -31 6 -47c0 -7 0 -14 -1 -21c-2 -55 -24 -106 -62 -144c-39 -39 -91 -61 -146 -62v0h-2h-9z M1532 427l1 2c4 0 8 0 12 1l9 3c8 3 15 8 21 14l3 3v0v0v0v0l3 5s0 0 2 3l3 6c3 8 5 16 5 25v3v3c0 2 0 4 -1 6l-3 9h-298 l81 -81h163z M1107 1v359l170 -170v-189h-170z" fill="#75148B"></path>
  <path d="M2102 170l4 -4l166 -166h-366v687h170v-517h26zM2180 170h204v-170h-34z" fill="#8B008B"></path>
</svg>
